# Blender v2.80 (sub 75) OBJ File: ''
# www.blender.org
mtllib 2cadeiras_1mesa.mtl
o 28mm_Restaurant_Booth_Small_28mm_Restaurant_Booth_Small.004
v 7.000000 16.000000 -18.340000
v 7.000000 16.000000 -21.000000
v 7.000000 8.000000 -17.454000
v 7.000000 0.000000 -21.000000
v 22.000000 1.000000 -9.475000
v 22.000000 8.000000 -9.475000
v 7.000000 1.000000 -9.475000
v 7.000000 8.000000 -9.475000
v 7.000000 0.000000 -9.475000
v 7.000000 1.000000 7.475000
v 7.000000 0.000000 7.475000
v 7.000000 0.000000 19.000000
v 7.000000 8.000000 7.475000
v 7.000000 8.000000 15.454000
v 7.000000 16.000000 16.340000
v 7.000000 16.000000 19.000000
v 22.000000 0.000000 -9.475000
v 22.000000 0.000000 -21.000000
v 22.000000 0.000000 7.475000
v 22.000000 0.000000 19.000000
v 22.000000 16.000000 -21.000000
v 22.000000 16.000000 -18.340000
v 22.000000 8.000000 -17.454000
v 22.000000 1.000000 7.475000
v 22.000000 8.000000 7.475000
v 22.000000 8.000000 15.454000
v 22.000000 16.000000 16.340000
v 22.000000 16.000000 19.000000
vn -1.0000 0.0000 0.0000
vn 0.0000 0.0000 1.0000
vn 0.0000 -1.0000 0.0000
vn 1.0000 0.0000 0.0000
vn 0.0000 0.0000 -1.0000
vn 0.0000 1.0000 0.0000
vn 0.0000 0.1101 0.9939
vn 0.0000 0.1101 -0.9939
usemtl Material
s off
f 1//1 2//1 3//1
f 2//1 4//1 3//1
f 5//2 6//2 7//2
f 8//2 7//2 6//2
f 8//1 3//1 7//1
f 4//1 7//1 3//1
f 9//1 7//1 4//1
f 12//1 10//1 11//1
f 13//1 10//1 14//1
f 10//1 12//1 14//1
f 15//1 14//1 16//1
f 12//1 16//1 14//1
f 17//3 9//3 18//3
f 4//3 18//3 9//3
f 20//3 12//3 19//3
f 11//3 19//3 12//3
f 21//4 22//4 23//4
f 21//4 23//4 18//4
f 6//4 5//4 23//4
f 18//4 23//4 5//4
f 18//4 5//4 17//4
f 25//4 26//4 24//4
f 20//4 24//4 26//4
f 19//4 24//4 20//4
f 27//4 28//4 26//4
f 28//4 20//4 26//4
f 18//5 4//5 2//5
f 18//5 2//5 21//5
f 2//6 1//6 22//6
f 2//6 22//6 21//6
f 15//6 16//6 27//6
f 28//6 27//6 16//6
f 8//6 6//6 3//6
f 1//7 3//7 23//7
f 1//7 23//7 22//7
f 23//6 3//6 6//6
f 28//2 16//2 20//2
f 20//2 16//2 12//2
f 10//5 25//5 24//5
f 25//5 10//5 13//5
f 26//6 25//6 14//6
f 13//6 14//6 25//6
f 26//8 14//8 15//8
f 26//8 15//8 27//8
f 10//5 24//5 19//5 11//5
f 5//2 7//2 9//2 17//2
o 28mm_Restaurant_Booth_Small.002_28mm_Restaurant_Booth_Small.006
v 14.920000 10.017957 -1.760000
v 22.000000 10.017957 -9.972000
v 15.077857 10.017957 -1.538000
v 15.214050 10.017957 -1.049000
v 22.000000 10.017957 7.972000
v 15.211429 10.017957 -1.027000
v 15.202886 10.017957 -1.049000
v 15.179286 10.017957 -1.259000
v 15.208393 10.017957 -1.000000
v 15.214050 10.017957 -0.951000
v 15.211429 10.017957 -0.973000
v 14.279285 10.017957 -0.098000
v 7.000000 10.017957 7.972000
v 14.080000 10.017957 -0.240000
v 7.000000 10.017957 -9.972000
v 15.202936 4.805497 -1.049000
v 15.194872 0.017957 -1.121130
v 15.179286 10.017957 -0.741000
v 15.202886 10.017957 -0.951000
v 13.790671 0.017957 -1.007370
v 13.790700 0.017957 -1.007170
v 13.785943 9.559597 -1.049000
v 13.788893 0.017957 -1.024000
v 13.790643 0.017957 -1.007610
v 13.786072 4.975957 -1.049000
v 13.785943 9.559597 -0.951000
v 13.790700 0.017957 -0.992830
v 13.790671 0.017957 -0.992630
v 15.111857 0.017957 -0.554230
v 15.112693 0.017957 -0.556530
v 15.077857 10.017957 -0.462000
v 15.208414 8.166157 -1.000000
v 15.195136 0.017957 -0.881200
v 15.202743 2.354877 -0.951000
v 15.202936 4.805497 -0.951000
v 15.078571 0.017957 -1.536000
v 15.077857 0.017957 -1.538000
v 15.128279 0.017957 -0.600170
v 15.096272 0.017957 -0.513570
v 15.097357 0.017957 -0.516400
v 15.042436 0.017957 -1.587590
v 15.041136 0.017957 -1.589420
v 15.211429 0.017957 -1.027000
v 15.213971 0.017957 -1.048380
v 15.179993 0.017957 -1.253050
v 15.179286 0.017957 -1.259000
v 15.171529 0.017957 -1.280000
v 15.168657 0.017957 -1.287760
v 15.167950 0.017957 -1.289740
v 15.131114 0.017957 -1.390910
v 15.128279 0.017957 -1.399830
v 13.922143 10.017957 -0.462000
v 15.208343 7.295547 -1.000000
v 15.213971 0.017957 -0.951620
v 15.211085 0.017957 -1.024000
v 15.208343 0.017957 -1.000000
v 15.214050 0.017957 -1.049000
v 15.211429 0.017957 -0.973000
v 15.208436 0.017957 -0.999160
v 15.111857 0.017957 -1.445770
v 15.112693 0.017957 -1.443470
v 15.202743 2.354877 -1.049000
v 13.903728 0.017957 -1.486430
v 13.922143 10.017957 -1.538000
v 13.921429 0.017957 -1.536000
v 15.168657 0.017957 -0.712240
v 15.167950 0.017957 -0.710260
v 13.797014 0.017957 -1.049000
v 13.786072 0.017957 -1.049000
v 13.797065 4.805497 -1.049000
v 15.077857 0.017957 -0.462000
v 15.095715 0.017957 -0.512000
v 15.214050 0.017957 -0.951000
v 13.805129 0.017957 -1.121130
v 13.804864 0.017957 -1.118800
v 15.194872 0.017957 -0.878870
v 14.812858 10.017957 -1.836000
v 14.720715 10.017957 -1.902000
v 15.202743 0.017957 -0.951000
v 14.812100 0.017957 -0.163460
v 14.720715 10.017957 -0.098000
v 14.772429 0.017957 -0.134700
v 15.096272 0.017957 -1.486430
v 15.093514 0.017957 -1.494160
v 14.720715 0.017957 -1.902000
v 14.742672 0.017957 -1.886130
v 14.745507 0.017957 -1.884150
v 14.772429 0.017957 -1.865300
v 14.812100 0.017957 -1.836540
v 14.719600 0.017957 -1.902280
v 15.200093 0.017957 -1.072180
v 15.195136 0.017957 -1.118800
v 15.097357 0.017957 -1.483600
v 14.812858 0.017957 -1.836000
v 15.208414 0.017957 -0.999370
v 14.714643 0.017957 -1.903550
v 14.697336 0.017957 -1.907950
v 14.697143 0.017957 -1.907990
v 15.179286 0.017957 -0.741000
v 14.955421 0.017957 -1.710410
v 14.920000 0.017957 -1.760000
v 14.283536 0.017957 -1.902990
v 14.279285 10.017957 -1.902000
v 14.331429 0.017957 -1.913660
v 14.882457 0.017957 -1.786780
v 14.875350 0.017957 -1.792000
v 14.655543 0.017957 -1.916880
v 15.131114 0.017957 -0.609090
v 14.500000 0.017957 -1.951000
v 14.531164 0.017957 -1.944060
v 14.620914 0.017957 -1.924270
v 14.621150 0.017957 -1.924220
v 14.147521 0.017957 -1.808770
v 14.148343 0.017957 -1.809160
v 15.200093 0.017957 -0.927820
v 13.797014 0.017957 -0.951000
v 13.797065 4.805497 -0.951000
v 13.786072 0.017957 -0.951000
v 14.500000 10.017957 -1.951000
v 14.622943 0.017957 -1.923820
v 14.080000 10.017957 -1.760000
v 13.966658 0.017957 -1.601320
v 13.810085 0.017957 -1.167760
v 13.820714 10.017957 -1.259000
v 13.818429 0.017957 -1.239400
v 13.820714 0.017957 -1.259000
v 13.888143 0.017957 -1.445770
v 13.887307 0.017957 -1.443470
v 14.812858 0.017957 -0.164000
v 14.812858 10.017957 -0.164000
v 15.202743 0.017957 -1.049000
v 15.182371 0.017957 -0.768000
v 14.719600 0.017957 -0.097720
v 14.714643 0.017957 -0.096450
v 15.179464 0.017957 -0.742490
v 13.791500 0.017957 -1.000000
v 13.791586 8.166157 -1.000000
v 14.854121 0.017957 -0.192400
v 14.920000 10.017957 -0.240000
v 13.785950 10.017957 -1.049000
v 13.791607 10.017957 -1.000000
v 13.788571 10.017957 -1.027000
v 13.797114 10.017957 -1.049000
v 14.377057 0.017957 -1.923820
v 14.280043 0.017957 -1.902180
v 14.145879 0.017957 -1.807600
v 14.178693 0.017957 -1.830590
v 14.257329 0.017957 -1.886130
v 14.149650 0.017957 -1.809770
v 14.134429 0.017957 -1.799330
v 13.957564 0.017957 -1.587590
v 13.922143 0.017957 -1.538000
v 13.868886 0.017957 -1.390910
v 13.846929 0.017957 -1.331400
v 14.745507 0.017957 -0.115850
v 14.742672 0.017957 -0.113870
v 14.655543 0.017957 -0.083120
v 14.622943 0.017957 -0.076180
v 13.786072 4.975957 -0.951000
v 13.786422 0.017957 -0.952970
v 14.500000 10.017957 -0.049000
v 15.179993 0.017957 -0.746950
v 13.785950 10.017957 -0.951000
v 13.788571 10.017957 -0.973000
v 13.820714 10.017957 -0.741000
v 13.832050 0.017957 -0.710260
v 13.833465 0.017957 -0.706290
v 13.797114 10.017957 -0.951000
v 15.042436 0.017957 -0.412410
v 14.149650 0.017957 -0.190230
v 14.178693 0.017957 -0.169410
v 14.080000 0.017957 -0.240000
v 14.068571 0.017957 -0.256000
v 14.378850 0.017957 -1.924220
v 14.499836 0.017957 -1.950970
v 14.497693 0.017957 -1.950510
v 14.497886 0.017957 -1.950550
v 14.258743 0.017957 -1.888120
v 14.279285 0.017957 -1.902000
v 14.412157 0.017957 -1.932160
v 14.378936 0.017957 -1.924240
v 14.124286 0.017957 -1.792000
v 13.805129 0.017957 -0.878870
v 14.080000 0.017957 -1.760000
v 13.922143 0.017957 -0.462000
v 13.957564 0.017957 -0.412410
v 13.965357 0.017957 -0.400510
v 13.786422 0.017957 -1.047030
v 13.965714 0.017957 -1.599990
v 13.965357 0.017957 -1.599490
v 13.903014 0.017957 -1.485440
v 14.853236 0.017957 -1.808230
v 13.832050 0.017957 -1.289740
v 14.854121 0.017957 -1.807600
v 13.833465 0.017957 -1.293710
v 14.955421 0.017957 -0.289590
v 14.931429 0.017957 -0.256000
v 13.828457 0.017957 -1.280000
v 14.920000 0.017957 -0.240000
v 15.041136 0.017957 -0.410580
v 14.882457 0.017957 -0.213220
v 14.412157 0.017957 -0.067840
v 14.378936 0.017957 -0.075760
v 14.880000 0.017957 -0.211420
v 14.697336 0.017957 -0.092050
v 14.720715 0.017957 -0.098000
v 14.853236 0.017957 -0.191770
v 14.697143 0.017957 -0.092010
v 14.621150 0.017957 -0.075780
v 13.804864 0.017957 -0.881200
v 14.500000 0.017957 -0.049000
v 14.499836 0.017957 -0.049030
v 14.531164 0.017957 -0.055940
v 14.497886 0.017957 -0.049450
v 14.497693 0.017957 -0.049490
v 14.620914 0.017957 -0.075730
v 14.283536 0.017957 -0.097010
v 14.280043 0.017957 -0.097820
v 14.378850 0.017957 -0.075780
v 14.377057 0.017957 -0.076180
v 13.790643 0.017957 -0.992390
v 13.820714 0.017957 -0.741000
v 13.820543 0.017957 -0.742470
v 13.819850 0.017957 -0.748420
v 13.810085 0.017957 -0.832240
v 13.903014 0.017957 -0.514560
v 13.903728 0.017957 -0.513570
v 13.846929 0.017957 -0.668600
v 13.868886 0.017957 -0.609090
v 13.888143 0.017957 -0.554230
v 13.887307 0.017957 -0.556530
v 13.817572 0.017957 -0.768000
v 14.279285 0.017957 -0.098000
v 13.966658 0.017957 -0.398680
v 13.918600 0.017957 -0.471920
v 13.904285 0.017957 -0.512000
v 14.258743 0.017957 -0.111880
v 14.147521 0.017957 -0.191230
v 13.965714 0.017957 -0.400010
v 14.148571 0.017957 -0.190740
v 14.145879 0.017957 -0.192400
v 14.257329 0.017957 -0.113870
vn 0.0000 -1.0000 0.0000
vn 0.9937 0.0000 -0.1117
vn -0.9899 0.0001 0.1415
vn -0.9943 -0.0000 0.1062
vn -0.9899 0.0001 -0.1415
vn 0.9399 0.0000 0.3414
vn 0.9937 0.0000 0.1117
vn 0.9944 -0.0001 0.1057
vn 0.9418 0.0000 -0.3363
vn 0.9417 -0.0001 0.3363
vn 0.9398 0.0000 0.3417
vn 0.9337 -0.0001 0.3581
vn 0.8153 -0.0000 -0.5790
vn 0.8137 0.0000 -0.5812
vn 0.9930 0.0000 0.1181
vn 0.0000 0.0000 -1.0000
vn 0.9937 0.0000 -0.1121
vn 0.9930 0.0000 -0.1179
vn 0.9380 0.0000 -0.3465
vn 0.9417 -0.0000 -0.3366
vn 0.9530 -0.0006 -0.3029
vn 0.9397 -0.0000 -0.3421
vn 0.9935 0.0000 0.1136
vn 0.9930 -0.0000 -0.1183
vn 0.9935 -0.0000 0.1137
vn 0.9930 -0.0000 0.1183
vn 0.9935 0.0000 0.1135
vn 0.9944 -0.0001 0.1054
vn 0.9935 -0.0000 -0.1137
vn 0.9935 0.0000 -0.1136
vn 0.9944 -0.0001 -0.1054
vn 0.9399 0.0000 -0.3414
vn -0.9418 0.0000 -0.3363
vn 0.9417 -0.0000 0.3366
vn 0.9417 0.0000 0.3363
vn 0.9919 0.0000 -0.1267
vn -0.9936 0.0000 -0.1131
vn 0.0000 0.0000 1.0000
vn -0.9937 0.0000 -0.1118
vn 0.5869 0.0001 0.8096
vn 0.9379 0.0000 -0.3470
vn 0.9419 0.0000 -0.3359
vn 0.9398 0.0000 -0.3417
vn 0.9944 -0.0001 -0.1057
vn 0.9338 -0.0001 -0.3579
vn 0.9946 0.0000 -0.1039
vn 0.2464 0.0000 -0.9692
vn 0.9936 0.0000 0.1127
vn 0.9380 0.0000 0.3466
vn 0.9425 0.0000 0.3343
vn -0.2175 0.0000 -0.9761
vn 0.9397 -0.0000 0.3421
vn -0.4285 -0.0028 -0.9035
vn 0.5805 0.0000 -0.8143
vn 0.2176 0.0000 -0.9760
vn -0.8150 0.0000 -0.5795
vn -0.9933 0.0000 -0.1157
vn -0.9933 0.0000 -0.1158
vn -0.9399 0.0000 -0.3414
vn 0.5806 0.0000 0.8142
vn 0.2153 -0.0000 -0.9765
vn 0.9417 -0.0001 -0.3363
vn 0.9337 -0.0001 -0.3581
vn 0.9936 0.0000 -0.1128
vn 0.9930 0.0000 -0.1181
vn 0.9937 0.0000 0.1120
vn 0.2482 -0.0000 0.9687
vn 0.9929 0.0000 0.1188
vn 0.9417 -0.0000 -0.3363
vn -0.9938 0.0000 0.1109
vn 0.5786 0.0001 0.8156
vn -0.9937 0.0000 -0.1117
vn -0.2173 0.0000 -0.9761
vn -0.2258 0.0000 -0.9742
vn -0.5802 0.0001 -0.8144
vn -0.5769 -0.0000 -0.8168
vn -0.5826 0.0001 -0.8127
vn -0.5855 0.0000 -0.8107
vn -0.8137 0.0000 -0.5812
vn -0.9382 0.0000 -0.3462
vn -0.9930 0.0000 0.1183
vn 0.5736 -0.0000 0.8192
vn 0.5726 -0.0000 0.8199
vn 0.2082 0.0001 0.9781
vn -0.9846 0.0000 -0.1749
vn 0.9919 0.0000 0.1267
vn 0.9936 0.0000 -0.1127
vn -0.9930 0.0000 -0.1183
vn -0.9937 0.0000 0.1117
vn 0.9937 0.0000 0.1123
vn 0.9931 0.0000 0.1176
vn 0.9530 -0.0006 0.3029
vn -0.9420 -0.0000 0.3356
vn 0.9338 -0.0001 0.3579
vn 0.8137 0.0000 0.5812
vn -0.5826 0.0001 0.8127
vn -0.8137 0.0000 0.5812
vn 0.2482 -0.0000 -0.9687
vn 0.5807 0.0000 -0.8141
vn 0.2026 0.0001 -0.9793
vn 0.2082 0.0001 -0.9781
vn -0.2167 0.0000 -0.9762
vn -0.8151 0.0009 -0.5793
vn 0.2167 0.0000 -0.9762
vn -0.5599 0.0000 -0.8286
vn 0.2090 -0.0001 -0.9779
vn -0.2098 0.0000 -0.9778
vn -0.4230 -0.0029 -0.9061
vn -0.5803 0.0001 -0.8144
vn -0.5857 -0.0000 -0.8105
vn -0.2176 0.0000 -0.9760
vn -0.2293 0.0001 -0.9734
vn -0.9437 -0.0002 -0.3308
vn -0.8366 -0.0002 0.5478
vn -0.9846 0.0000 0.1749
vn 0.8150 -0.0000 -0.5795
vn 0.8160 0.0000 -0.5781
vn 0.5667 0.0000 -0.8239
vn 0.5920 -0.0001 -0.8060
vn 0.5798 0.0001 -0.8148
vn 0.2433 0.0000 -0.9700
vn 0.5736 -0.0000 -0.8192
vn 0.5823 -0.0000 -0.8130
vn -0.9398 0.0000 -0.3417
vn 0.5869 0.0001 -0.8096
vn 0.5725 -0.0000 -0.8199
vn 0.2174 0.0000 -0.9761
vn -0.1807 0.0000 -0.9835
vn 0.5786 0.0001 -0.8156
vn -0.8366 -0.0002 -0.5478
vn 0.8153 -0.0000 0.5791
vn 0.8160 0.0000 0.5781
vn -0.9417 -0.0000 -0.3364
vn -0.9382 0.0000 -0.3461
vn -0.2319 0.0002 0.9727
vn -0.9420 -0.0000 -0.3356
vn 0.5922 -0.0001 0.8058
vn 0.5910 -0.0001 0.8067
vn 0.2464 0.0000 0.9692
vn -0.9943 -0.0000 0.1067
vn 0.5858 0.0000 0.8105
vn 0.5667 0.0000 0.8239
vn -0.9944 0.0001 -0.1057
vn 0.5799 0.0001 0.8147
vn 0.2436 0.0000 0.9699
vn -0.9936 0.0000 0.1131
vn 0.8150 -0.0000 0.5795
vn 0.2153 -0.0000 0.9765
vn 0.5807 0.0000 0.8141
vn -0.2259 0.0000 0.9742
vn 0.2178 0.0000 0.9760
vn 0.2076 -0.0001 0.9782
vn 0.5823 -0.0000 0.8130
vn -0.1799 0.0000 0.9837
vn 0.2090 0.0001 0.9779
vn 0.2167 0.0000 0.9762
vn 0.2174 0.0000 0.9761
vn -0.2105 0.0000 0.9776
vn -0.9930 0.0000 0.1182
vn 0.2024 0.0001 0.9793
vn -0.9943 -0.0000 0.1065
vn -0.2033 -0.0000 0.9791
vn -0.2098 0.0000 0.9778
vn -0.9930 0.0001 0.1183
vn -0.9943 -0.0000 -0.1065
vn -0.9930 0.0001 -0.1183
vn -0.2268 0.0001 0.9739
vn -0.9933 0.0000 0.1154
vn -0.9933 0.0000 0.1157
vn -0.9930 0.0000 -0.1182
vn -0.9937 0.0000 0.1118
vn -0.9938 0.0000 -0.1109
vn -0.8110 -0.0015 0.5851
vn -0.9382 0.0000 0.3462
vn -0.9382 0.0000 0.3460
vn -0.9364 -0.0001 0.3510
vn -0.9933 -0.0000 0.1158
vn -0.9933 0.0000 0.1156
vn -0.9417 -0.0000 0.3364
vn -0.2174 0.0000 0.9761
vn -0.2313 0.0000 0.9729
vn -0.9399 0.0000 0.3414
vn -0.8150 0.0000 0.5795
vn -0.9417 0.0000 0.3363
vn -0.9425 0.0000 0.3343
vn -0.5599 0.0000 0.8286
vn -0.5803 0.0001 0.8144
vn -0.4229 -0.0029 0.9062
vn -0.4275 -0.0028 0.9040
vn -0.5802 0.0001 0.8144
vn -0.5857 0.0000 0.8106
vn -0.8157 0.0000 0.5785
vn -0.8134 0.0001 0.5818
vn -0.8151 0.0009 0.5793
vn -0.9398 0.0000 0.3417
vn -0.5769 -0.0000 0.8168
vn -0.2167 0.0000 0.9762
vn -0.2178 0.0000 0.9760
vn 0.5922 -0.0001 -0.8058
vn -0.9938 0.0000 0.1116
vn -0.9938 0.0000 -0.1116
vn 0.5858 0.0000 -0.8105
vn -0.2036 -0.0000 -0.9791
vn 0.2090 0.0001 -0.9779
vn -0.2105 0.0000 -0.9776
vn -0.9437 -0.0002 0.3308
vn -0.9944 0.0001 0.1057
vn -0.2319 0.0002 -0.9727
vn -0.2309 0.0000 -0.9730
vn -0.8133 0.0001 -0.5818
vn -0.8157 0.0000 -0.5785
vn -0.8110 -0.0015 -0.5850
vn -0.9364 -0.0001 -0.3510
vn -0.9383 0.0000 -0.3459
usemtl Material.002
s off
f 29//9 30//9 31//9
f 32//9 33//9 34//9
f 35//9 36//9 32//9
f 36//9 30//9 32//9
f 30//9 36//9 31//9
f 34//9 33//9 37//9
f 38//9 39//9 33//9
f 37//9 33//9 39//9
f 40//9 41//9 42//9
f 36//10 44//10 45//10
f 38//9 33//9 46//9
f 46//9 47//9 38//9
f 48//11 49//11 50//11
f 51//12 52//12 53//12
f 54//13 55//13 56//13
f 57//14 58//14 59//14
f 46//9 33//9 59//9
f 35//10 44//10 36//10
f 37//15 60//15 34//15
f 61//16 62//16 63//16
f 60//10 37//10 39//10
f 31//17 64//17 65//17
f 46//18 58//18 66//18
f 46//19 59//19 58//19
f 67//20 68//20 59//20
f 69//21 70//21 31//21
f 65//22 69//22 31//22
f 71//23 72//23 34//23
f 44//24 35//24 32//24
f 73//25 36//25 45//25
f 73//26 74//26 36//26
f 74//27 75//27 36//27
f 36//28 76//28 77//28
f 78//29 79//29 36//29
f 80//9 42//9 41//9
f 78//30 36//30 77//30
f 71//31 34//31 81//31
f 38//32 82//32 39//32
f 71//33 81//33 83//33
f 34//34 72//34 32//34
f 84//35 83//35 81//35
f 60//36 81//36 34//36
f 32//24 85//24 44//24
f 86//37 87//37 81//37
f 39//38 86//38 81//38
f 81//39 60//39 39//39
f 88//40 31//40 89//40
f 47//15 46//15 63//15
f 90//24 44//24 85//24
f 91//41 92//41 93//41
f 94//42 46//42 95//42
f 96//24 97//24 98//24
f 99//43 100//43 59//43
f 101//44 82//44 38//44
f 98//45 102//45 103//45
f 46//15 104//15 63//15
f 63//46 38//46 47//46
f 96//47 98//47 103//47
f 33//9 32//9 30//9
f 105//9 106//9 30//9
f 105//9 30//9 29//9
f 62//46 101//46 63//46
f 107//46 101//46 62//46
f 108//48 109//48 110//48
f 76//49 36//49 75//49
f 111//50 112//50 31//50
f 36//51 89//51 31//51
f 119//52 120//52 90//52
f 88//53 121//53 31//53
f 87//54 123//54 81//54
f 125//55 106//55 124//55
f 61//56 63//56 104//56
f 46//57 94//57 127//57
f 67//58 59//58 100//58
f 130//59 131//59 132//59
f 46//60 136//60 95//60
f 141//61 131//61 142//61
f 143//31 107//31 62//31
f 144//46 145//46 146//46
f 62//16 61//16 143//16
f 122//62 117//62 105//62
f 38//46 63//46 101//46
f 30//9 106//9 147//9
f 148//63 140//63 106//63
f 149//64 150//64 92//64
f 30//9 147//9 43//9
f 131//9 149//9 43//9
f 151//65 152//65 153//65
f 92//9 43//9 149//9
f 154//66 153//66 152//66
f 155//67 156//67 92//67
f 43//9 147//9 131//9
f 92//9 152//9 43//9
f 157//68 158//68 108//68
f 139//69 138//69 147//69
f 89//70 36//70 79//70
f 119//38 90//38 159//38
f 111//71 31//71 121//71
f 84//72 81//72 123//72
f 86//73 39//73 82//73
f 160//74 104//74 46//74
f 161//75 109//75 162//75
f 163//76 46//76 127//76
f 112//77 64//77 31//77
f 164//78 165//78 49//78
f 166//79 167//79 158//79
f 102//80 98//80 152//80
f 152//9 168//9 43//9
f 169//9 43//9 170//9
f 168//9 170//9 43//9
f 168//9 152//9 171//9
f 172//81 132//81 131//81
f 130//82 173//82 131//82
f 174//83 149//83 141//83
f 175//84 131//84 176//84
f 175//85 177//85 131//85
f 174//86 178//86 149//86
f 179//87 180//87 92//87
f 152//88 181//88 182//88
f 168//89 50//89 170//89
f 53//24 50//24 98//24
f 168//24 171//24 50//24
f 110//90 109//90 183//90
f 184//91 183//91 109//91
f 185//92 109//92 186//92
f 187//93 188//93 146//93
f 85//94 32//94 72//94
f 159//24 90//24 85//24
f 45//95 44//95 120//95
f 44//52 90//52 120//52
f 187//46 146//46 145//46
f 59//9 33//9 167//9
f 158//9 167//9 33//9
f 40//9 189//9 41//9
f 191//96 192//96 54//96
f 165//97 169//97 170//97
f 160//98 46//98 190//98
f 46//99 163//99 190//99
f 136//100 46//100 66//100
f 193//101 194//101 195//101
f 191//46 54//46 196//46
f 57//102 59//102 68//102
f 43//9 169//9 192//9
f 191//9 43//9 192//9
f 59//103 197//103 99//103
f 193//9 41//9 191//9
f 80//9 41//9 193//9
f 43//9 191//9 41//9
f 191//9 196//9 193//9
f 198//104 199//104 40//104
f 200//105 42//105 201//105
f 124//106 106//106 118//106
f 129//107 133//107 29//107
f 125//108 126//108 106//108
f 135//109 148//109 106//109
f 147//110 202//110 131//110
f 131//111 206//111 176//111
f 147//112 106//112 140//112
f 131//113 207//113 206//113
f 140//114 139//114 147//114
f 208//115 147//115 204//115
f 177//116 142//116 131//116
f 131//117 141//117 149//117
f 178//118 210//118 149//118
f 172//119 131//119 202//119
f 202//120 147//120 209//120
f 211//97 193//97 145//97
f 196//46 54//46 145//46
f 152//121 156//121 181//121
f 212//118 149//118 210//118
f 53//24 98//24 97//24
f 80//105 213//105 214//105
f 80//122 214//122 215//122
f 216//123 53//123 97//123
f 29//124 31//124 70//124
f 29//125 70//125 128//125
f 128//22 129//22 29//22
f 220//126 122//126 105//126
f 133//127 134//127 29//127
f 222//128 220//128 105//128
f 224//103 167//103 225//103
f 113//129 118//129 106//129
f 116//130 115//130 106//130
f 106//131 105//131 117//131
f 152//132 92//132 156//132
f 106//133 117//133 116//133
f 114//134 106//134 115//134
f 138//135 137//135 147//135
f 137//136 203//136 147//136
f 29//137 222//137 105//137
f 92//138 218//138 179//138
f 197//139 59//139 228//139
f 228//140 167//140 224//140
f 152//141 182//141 223//141
f 221//142 226//142 152//142
f 230//143 189//143 231//143
f 221//144 152//144 223//144
f 166//145 232//145 167//145
f 229//146 167//146 232//146
f 233//147 162//147 109//147
f 216//148 51//148 53//148
f 180//41 93//41 92//41
f 234//149 184//149 109//149
f 235//150 158//150 157//150
f 171//24 98//24 50//24
f 152//151 151//151 102//151
f 158//152 235//152 166//152
f 234//153 109//153 161//153
f 171//80 152//80 98//80
f 238//154 211//154 145//154
f 167//155 228//155 59//155
f 227//103 225//103 167//103
f 244//156 189//156 241//156
f 167//157 229//157 227//157
f 245//158 40//158 246//158
f 186//159 109//159 237//159
f 189//160 244//160 237//160
f 109//161 108//161 158//161
f 239//162 189//162 240//162
f 185//163 236//163 109//163
f 189//164 237//164 109//164
f 189//165 239//165 241//165
f 242//166 240//166 189//166
f 49//167 170//167 50//167
f 233//168 109//168 236//168
f 50//169 53//169 48//169
f 243//170 242//170 189//170
f 230//171 243//171 189//171
f 52//172 48//172 53//172
f 54//173 56//173 187//173
f 249//174 187//174 56//174
f 247//175 231//175 189//175
f 250//176 193//176 251//176
f 252//177 251//177 193//177
f 188//173 187//173 249//173
f 55//178 54//178 192//178
f 192//80 169//80 165//80
f 145//179 144//179 238//179
f 164//180 55//180 165//180
f 80//181 254//181 255//181
f 256//182 257//182 193//182
f 250//183 194//183 193//183
f 258//184 254//184 80//184
f 193//185 253//185 260//185
f 260//186 252//186 193//186
f 193//187 195//187 256//187
f 248//188 40//188 245//188
f 261//189 246//189 40//189
f 259//190 258//190 80//190
f 42//191 80//191 262//191
f 263//192 80//192 264//192
f 255//193 264//193 80//193
f 40//194 265//194 261//194
f 40//195 42//195 266//195
f 266//196 268//196 40//196
f 40//197 268//197 198//197
f 269//198 266//198 42//198
f 42//199 200//199 269//199
f 262//105 201//105 42//105
f 267//200 262//200 80//200
f 215//201 267//201 80//201
f 270//202 265//202 40//202
f 259//203 80//203 193//203
f 199//204 270//204 40//204
f 189//205 40//205 247//205
f 248//206 247//206 40//206
f 222//207 29//207 134//207
f 170//208 49//208 165//208
f 192//209 165//209 55//209
f 113//210 106//210 114//210
f 204//211 147//211 205//211
f 135//212 106//212 126//212
f 203//213 205//213 147//213
f 259//214 193//214 257//214
f 211//215 253//215 193//215
f 196//97 145//97 193//97
f 209//216 147//216 208//216
f 187//46 145//46 54//46
f 207//217 131//217 173//217
f 149//87 212//87 150//87
f 218//218 92//218 217//218
f 217//219 92//219 150//219
f 91//220 219//220 92//220
f 219//221 155//221 92//221
f 154//222 152//222 226//222
f 213//192 80//192 263//192
f 41//9 189//9 33//9
f 109//9 33//9 189//9
f 109//9 158//9 33//9
o 28mm_Restaurant_Booth_Small.001_28mm_Restaurant_Booth_Small.007
v 22.000000 10.017957 -9.972000
v 22.000000 10.017957 7.972000
v 7.000000 10.017957 7.972000
v 7.000000 10.017957 -9.972000
v 7.000000 11.517957 7.972000
v 7.000000 11.517957 -9.972000
v 22.000000 11.517957 -9.972000
v 22.000000 11.517957 7.972000
vn -1.0000 0.0000 0.0000
vn 1.0000 0.0000 0.0000
vn 0.0000 0.0000 -1.0000
vn 0.0000 0.0000 1.0000
vn 0.0000 1.0000 0.0000
usemtl Material.003
s off
f 274//223 273//223 275//223
f 274//223 275//223 276//223
f 272//224 271//224 277//224
f 272//224 277//224 278//224
f 276//225 277//225 271//225
f 276//225 271//225 274//225
f 273//226 272//226 278//226
f 278//226 275//226 273//226
f 278//227 277//227 275//227
f 275//227 277//227 276//227
