# Blender v2.80 (sub 75) OBJ File: ''
# www.blender.org
mtllib pedra_2.mtl
o Stone_3
v 5.425743 -3.152515 8.603172
v 5.293289 -3.152515 8.935787
v 2.721619 -3.152515 8.860889
v 6.293457 -3.152516 6.177246
v 2.721687 -3.152755 1.087383
v 6.981354 -3.152516 4.284252
v 6.255081 -3.152516 6.285561
v 5.474419 -3.152515 8.467133
v 2.721687 -3.152754 8.467384
v 0.843250 -3.152519 -6.292843
v 1.258991 -3.152519 -6.162884
v -1.869167 -3.152519 -6.292843
v 7.371284 -3.152517 3.222595
v 7.378746 -3.152517 3.124538
v 7.267822 -3.152517 3.495934
v 2.447571 -3.152515 8.467133
v 2.337128 -3.152516 7.501163
v 4.415489 -3.152515 9.301598
v 3.208908 -3.152515 9.503132
v 3.375771 -3.152515 9.781811
v 3.524513 -3.152515 9.717625
v 2.451950 -3.152515 8.505478
v -2.012619 -3.152518 -2.465794
v -2.002670 -3.152518 -1.760853
v -2.004894 -3.152518 -1.898129
v -1.974300 -3.152517 0.305573
v -1.981056 -3.152517 -0.186352
v -1.973427 -3.152517 0.360516
v -1.972694 -3.152517 0.412952
v 2.721619 -3.152519 -5.582138
v -2.059731 -3.152519 -6.094849
v 2.030251 -3.152519 -6.056683
v -2.051552 -3.152519 -5.275646
v 0.177650 -3.152516 5.060192
v -0.793621 -3.152516 3.725525
v 1.443527 -3.152516 6.157581
v 1.686832 -3.152516 6.379246
v 1.916840 -3.152516 6.647690
v -1.803196 -3.152519 -6.361389
v -1.230076 -3.152519 -6.758720
v -0.437210 -3.152519 -6.693115
v -1.516315 -3.152519 -6.817104
v 7.405975 -3.152517 0.659084
v 6.520447 -3.152518 -0.854767
v 6.798012 -3.152518 -0.489162
v 6.083115 -3.152518 -1.435505
v 7.468422 -3.152517 0.837673
v 7.539413 -3.152517 0.936108
v 3.237587 -3.152519 -5.224953
v 3.054115 -3.152519 -5.353920
v 3.364899 -3.152519 -5.053356
v 3.767418 -3.152519 -4.518688
v 4.093956 -3.152518 -4.093567
v 5.497437 -3.152518 -2.213234
v -1.955585 -3.152517 1.763401
v -1.197403 -3.152517 3.169025
v -1.195454 -3.152517 3.172829
v -1.192390 -3.152517 3.177917
v -1.186584 -3.152517 3.185535
v -2.039883 -3.152519 -4.434784
v -2.035507 -3.152519 -4.130894
v -2.030464 -3.152518 -3.778236
v -2.010277 -2.940259 -1.866821
v -2.048977 -2.621395 -4.106213
v -2.080620 -1.857411 -6.022625
v -2.111626 -0.188607 -3.992531
v -2.083897 -0.264475 -4.784294
v -2.080662 -0.299695 -1.682495
v -2.041161 -0.397243 0.662308
v 0.355068 2.409061 -1.160191
v 0.490498 2.435920 1.771645
v -0.425110 1.664344 -3.688931
v -1.366241 0.703117 -4.924896
v -1.639297 0.126909 -5.646564
v -0.549671 1.183433 -5.231281
v 0.204102 1.890380 -4.274883
v 2.202724 3.492085 -1.330196
v 0.425251 1.008773 -5.497120
v 1.315388 1.703868 -4.573353
v -0.213234 0.243889 -6.293125
v -1.418346 -1.503443 -7.102512
v -0.552765 -1.116443 -6.997875
v -2.005577 -0.741168 2.532696
v -0.068871 -2.171048 5.133980
v 1.678246 -2.774764 6.471771
v -0.035889 1.662544 4.248001
v -1.409504 -0.089067 3.951389
v -0.271610 -0.501571 5.689751
v 0.735092 2.148068 4.924164
v 0.724674 -0.583999 7.239883
v 2.100670 -1.534987 8.342907
v 3.315369 -2.778528 9.712887
v 1.092995 2.585008 4.189854
v 1.389450 0.451196 7.137836
v 1.533855 2.940692 2.130939
v 1.677410 2.364173 5.169067
v 4.054848 3.326262 -1.818672
v 5.360786 2.817592 0.842190
v 5.069763 3.218130 -0.927773
v 5.954842 2.013476 3.368019
v 4.968468 2.390836 3.700710
v 2.546127 1.877632 5.975643
v 5.184883 1.481668 5.176918
v 2.266003 0.381868 7.493137
v 6.515831 1.033433 4.491028
v 5.002831 0.184625 6.441738
v 3.548515 -2.445812 9.528137
v 5.298569 -2.420292 8.704811
v 5.632469 -1.371943 7.553310
v 6.117889 -0.442876 5.927959
v 7.440788 -0.276255 2.395897
v 7.555008 -0.032244 0.900822
v 6.635979 1.107332 -0.394039
v 5.142632 1.939744 -2.309082
v 3.318634 -0.152699 -4.957104
v 2.500168 -0.650439 -5.652657
v 2.114407 -2.019343 -6.044971
v 6.885864 -1.753531 -0.450752
v 5.514030 -1.532383 -2.285564
v 3.246567 -2.728563 -5.239460
v 3.503548 -1.388023 -4.987034
vn 0.0000 -1.0000 0.0000
vn 0.0001 -1.0000 0.0000
vn 0.0001 -1.0000 0.0006
vn -0.0009 -1.0000 0.0001
vn -0.0008 -1.0000 0.0006
vn -0.0002 -1.0000 0.0000
vn -0.0546 -0.9985 0.0017
vn -0.0001 -1.0000 -0.0000
vn -0.0012 -1.0000 -0.0000
vn -0.0006 -1.0000 0.0000
vn 0.0000 -1.0000 0.0002
vn -0.9995 -0.0290 0.0137
vn -0.9995 -0.0277 0.0162
vn -0.9996 -0.0265 0.0135
vn -0.9995 -0.0273 0.0136
vn -0.9995 -0.0274 0.0136
vn -0.9996 -0.0260 0.0143
vn -0.9996 -0.0260 0.0144
vn -0.9996 -0.0257 0.0139
vn -0.9998 -0.0171 0.0100
vn -0.9998 -0.0167 0.0099
vn -0.9989 0.0272 -0.0376
vn -0.9996 -0.0260 0.0061
vn -0.9996 -0.0264 0.0135
vn -0.9995 -0.0275 0.0121
vn -0.9995 -0.0276 0.0139
vn -0.9995 -0.0277 0.0137
vn -0.9995 -0.0263 0.0157
vn -0.9995 -0.0263 0.0159
vn -0.7468 0.6638 0.0402
vn -0.7509 0.6598 0.0286
vn -0.7464 0.6645 0.0346
vn -0.7445 0.6663 0.0420
vn -0.7414 0.6696 0.0438
vn -0.7499 0.6556 -0.0891
vn -0.8233 0.5526 -0.1297
vn -0.5526 0.8073 -0.2071
vn -0.5045 0.8350 -0.2196
vn -0.4380 0.8900 -0.1270
vn -0.5102 0.8520 -0.1172
vn -0.0149 0.8097 -0.5867
vn -0.0220 0.8089 -0.5875
vn -0.5702 0.7335 -0.3699
vn -0.3605 0.6389 -0.6796
vn -0.0503 0.7400 -0.6707
vn -0.9007 0.2655 -0.3439
vn -0.8573 0.2733 -0.4362
vn -0.7202 0.0270 -0.6932
vn -0.8455 -0.0419 -0.5323
vn -0.3732 0.5893 -0.7165
vn -0.1086 0.4785 -0.8713
vn 0.1966 -0.1785 -0.9641
vn 0.1964 -0.1786 -0.9641
vn 0.0816 -0.1430 -0.9864
vn -0.9996 -0.0259 0.0140
vn -0.9996 -0.0261 0.0142
vn -0.9996 -0.0248 0.0127
vn -0.7849 -0.2401 0.5712
vn -0.6608 -0.1927 0.7254
vn -0.6395 -0.2162 0.7377
vn -0.6396 -0.2161 0.7377
vn -0.7535 0.6559 0.0447
vn -0.8085 0.5759 0.1213
vn -0.7901 0.6109 0.0511
vn -0.8677 -0.1673 0.4680
vn -0.8763 -0.1753 0.4487
vn -0.8761 -0.1754 0.4491
vn -0.8415 -0.1877 0.5065
vn -0.8416 -0.1875 0.5064
vn -0.7619 -0.2860 0.5811
vn -0.7623 -0.2853 0.5810
vn -0.7284 0.4902 0.4786
vn -0.7049 0.4307 0.5636
vn -0.8166 -0.2691 0.5106
vn -0.7478 -0.1739 0.6407
vn -0.8439 -0.3395 0.4155
vn -0.8438 -0.3396 0.4155
vn -0.6309 -0.4865 0.6044
vn -0.7259 -0.4864 0.4862
vn -0.9734 -0.2002 0.1113
vn -0.9734 -0.2002 0.1112
vn -0.7917 -0.1116 0.6007
vn -0.7917 -0.1115 0.6007
vn -0.6203 0.7689 0.1552
vn -0.7207 0.4308 0.5432
vn -0.7132 0.5058 0.4853
vn -0.5046 0.8632 0.0154
vn -0.4501 0.8913 0.0550
vn -0.4757 0.8633 0.1685
vn -0.6328 0.7743 -0.0017
vn 0.0638 0.9810 0.1831
vn -0.2989 0.8770 0.3762
vn 0.0065 0.8588 -0.5123
vn -0.0407 0.8891 -0.4560
vn 0.1350 0.9741 0.1813
vn 0.0817 0.9856 0.1483
vn -0.1040 0.9662 0.2358
vn 0.4059 0.8941 0.1892
vn 0.0850 0.9837 0.1585
vn 0.0735 0.9804 0.1826
vn -0.3274 0.6107 0.7210
vn -0.2598 0.7278 0.6347
vn 0.2117 0.8457 0.4898
vn 0.2315 0.9230 0.3074
vn -0.3371 0.3043 0.8910
vn -0.3878 0.4013 0.8298
vn -0.2132 0.7152 0.6656
vn 0.4475 0.7725 0.4506
vn 0.4739 0.7791 0.4104
vn 0.3088 0.6415 0.7023
vn 0.3137 0.6466 0.6953
vn -0.8571 -0.0439 0.5132
vn 0.3859 0.2267 0.8943
vn 0.3849 0.2270 0.8946
vn -0.4180 0.3981 0.8166
vn -0.2484 0.5974 0.7625
vn 0.3138 0.6550 0.6874
vn 0.3170 0.6328 0.7065
vn 0.3236 0.6450 0.6923
vn 0.5881 0.6139 0.5266
vn 0.5209 0.5574 0.6465
vn 0.5761 0.4851 0.6579
vn 0.8460 0.5315 0.0412
vn 0.4124 0.2228 0.8833
vn 0.4124 0.2227 0.8834
vn 0.3696 0.2771 0.8869
vn 0.9236 0.1094 0.3674
vn 0.9235 0.1093 0.3677
vn 0.9378 0.0890 0.3356
vn 0.9310 0.0927 0.3531
vn 0.9323 0.0789 0.3529
vn 0.9386 0.0914 0.3326
vn 0.9359 0.0919 0.3401
vn 0.7922 0.6102 0.0079
vn 0.8570 0.4941 0.1461
vn 0.9971 -0.0023 0.0758
vn 0.9971 -0.0023 0.0759
vn 0.9973 -0.0042 0.0732
vn 0.8027 0.5964 0.0030
vn 0.7923 0.6095 -0.0259
vn 0.5506 0.6269 -0.5512
vn 0.7812 0.4782 -0.4013
vn 0.3897 0.5700 -0.7233
vn 0.3973 0.5669 -0.7216
vn 0.3601 0.5451 -0.7571
vn 0.3523 0.5138 -0.7822
vn 0.3542 0.5160 -0.7799
vn 0.2842 0.1893 -0.9399
vn 0.4154 0.3345 -0.8459
vn 0.8110 -0.0107 -0.5850
vn 0.8110 -0.0107 -0.5849
vn 0.9402 0.0886 -0.3289
vn 0.9402 0.0887 -0.3288
vn 0.8029 0.0819 -0.5905
vn 0.8029 0.0818 -0.5905
vn 0.8830 -0.0426 -0.4675
vn 0.2960 -0.1249 -0.9470
vn 0.1364 0.0001 -0.9907
vn 0.5656 -0.0343 -0.8240
vn 0.5653 -0.0337 -0.8242
vn 0.5656 -0.0335 -0.8240
vn 0.5746 -0.0401 -0.8174
vn 0.7983 -0.0349 -0.6012
vn 0.7984 -0.0350 -0.6011
vn 0.7960 -0.0334 -0.6043
vn 0.6027 0.0582 -0.7958
vn 0.5744 0.0438 -0.8174
vn 0.7901 0.0804 -0.6077
vn 0.7984 0.1337 -0.5871
vn 0.8008 -0.0348 -0.5979
vn 0.8009 -0.0349 -0.5978
vn 0.7923 -0.0430 -0.6086
vn 0.6041 0.1096 -0.7893
vn 0.8025 -0.0374 -0.5954
vn 0.7991 -0.0402 -0.5998
vn 0.7983 -0.0401 -0.6010
usemtl Material.001
s off
f 1//1 2//1 3//1
f 4//1 5//1 6//1
f 7//1 5//1 4//1
f 8//1 5//1 7//1
f 9//2 5//2 8//2
f 3//3 9//3 1//3
f 10//1 11//1 12//1
f 13//1 5//1 14//1
f 15//1 5//1 13//1
f 6//1 5//1 15//1
f 8//2 1//2 9//2
f 16//4 17//4 9//4
f 18//1 3//1 2//1
f 19//1 3//1 18//1
f 20//1 19//1 21//1
f 9//4 22//4 16//4
f 9//5 3//5 22//5
f 23//6 24//6 25//6
f 24//7 26//7 27//7
f 24//8 28//8 26//8
f 24//9 29//9 28//9
f 24//8 5//8 29//8
f 23//8 5//8 24//8
f 30//1 31//1 32//1
f 33//1 31//1 30//1
f 5//1 34//1 35//1
f 5//1 36//1 34//1
f 5//1 37//1 36//1
f 5//1 38//1 37//1
f 5//8 17//8 38//8
f 5//10 9//10 17//10
f 39//1 40//1 41//1
f 39//1 42//1 40//1
f 43//1 44//1 45//1
f 43//1 46//1 44//1
f 47//1 46//1 43//1
f 5//1 47//1 48//1
f 5//1 46//1 47//1
f 12//1 39//1 10//1
f 49//11 30//11 50//11
f 51//1 30//1 49//1
f 52//1 30//1 51//1
f 53//1 30//1 52//1
f 54//1 30//1 53//1
f 46//1 30//1 54//1
f 5//1 30//1 46//1
f 31//1 12//1 11//1
f 55//8 29//8 5//8
f 18//1 21//1 19//1
f 5//1 56//1 55//1
f 5//1 57//1 56//1
f 5//1 58//1 57//1
f 5//1 59//1 58//1
f 5//1 35//1 59//1
f 11//1 32//1 31//1
f 30//1 60//1 33//1
f 30//1 61//1 60//1
f 30//1 62//1 61//1
f 30//1 23//1 62//1
f 30//1 5//1 23//1
f 41//1 10//1 39//1
f 48//1 14//1 5//1
f 27//12 63//12 24//12
f 24//13 63//13 25//13
f 64//14 62//14 63//14
f 23//15 63//15 62//15
f 25//16 63//16 23//16
f 62//17 64//17 61//17
f 61//18 64//18 60//18
f 60//19 64//19 33//19
f 33//20 64//20 31//20
f 65//21 31//21 64//21
f 66//22 67//22 65//22
f 65//23 64//23 66//23
f 66//24 64//24 63//24
f 63//25 68//25 66//25
f 27//26 68//26 63//26
f 26//27 68//27 27//27
f 68//28 26//28 69//28
f 28//29 69//29 26//29
f 70//30 68//30 69//30
f 69//31 71//31 70//31
f 72//32 68//32 70//32
f 73//33 66//33 68//33
f 68//34 72//34 73//34
f 74//35 67//35 66//35
f 66//36 73//36 74//36
f 75//37 73//37 72//37
f 72//38 76//38 75//38
f 76//39 72//39 70//39
f 70//40 77//40 76//40
f 78//41 75//41 76//41
f 76//42 79//42 78//42
f 74//43 73//43 75//43
f 75//44 80//44 74//44
f 80//45 75//45 78//45
f 65//46 67//46 74//46
f 74//47 81//47 65//47
f 12//48 65//48 39//48
f 31//48 65//48 12//48
f 39//49 65//49 42//49
f 81//49 42//49 65//49
f 81//50 74//50 80//50
f 80//51 82//51 81//51
f 42//52 81//52 40//52
f 82//53 40//53 81//53
f 40//54 82//54 41//54
f 29//55 83//55 28//55
f 69//56 28//56 83//56
f 55//57 83//57 29//57
f 35//58 84//58 59//58
f 34//58 84//58 35//58
f 36//59 37//59 85//59
f 85//60 34//60 36//60
f 85//61 84//61 34//61
f 86//62 71//62 69//62
f 69//63 83//63 86//63
f 86//64 83//64 87//64
f 56//65 83//65 55//65
f 56//66 87//66 83//66
f 57//67 87//67 56//67
f 58//68 88//68 57//68
f 87//69 57//69 88//69
f 88//70 58//70 84//70
f 59//71 84//71 58//71
f 89//72 86//72 87//72
f 87//73 88//73 89//73
f 88//74 84//74 90//74
f 38//75 85//75 37//75
f 38//76 91//76 85//76
f 17//77 91//77 38//77
f 90//78 84//78 85//78
f 85//79 91//79 90//79
f 16//80 91//80 17//80
f 22//81 91//81 16//81
f 91//82 22//82 92//82
f 3//82 92//82 22//82
f 19//83 92//83 3//83
f 93//84 86//84 89//84
f 94//85 89//85 88//85
f 88//86 90//86 94//86
f 77//87 70//87 71//87
f 71//88 95//88 77//88
f 95//89 71//89 86//89
f 86//90 93//90 95//90
f 95//91 93//91 96//91
f 93//92 89//92 96//92
f 97//93 79//93 76//93
f 76//94 77//94 97//94
f 97//95 77//95 95//95
f 95//96 98//96 97//96
f 99//97 97//97 98//97
f 100//98 98//98 101//98
f 101//99 98//99 95//99
f 95//100 96//100 101//100
f 102//101 96//101 89//101
f 89//102 94//102 102//102
f 103//103 101//103 96//103
f 96//104 102//104 103//104
f 104//105 94//105 90//105
f 90//106 91//106 104//106
f 102//107 94//107 104//107
f 105//108 100//108 101//108
f 101//109 103//109 105//109
f 106//110 103//110 102//110
f 102//111 104//111 106//111
f 20//112 92//112 19//112
f 107//113 20//113 21//113
f 107//114 92//114 20//114
f 107//115 104//115 91//115
f 91//116 92//116 107//116
f 107//117 108//117 109//117
f 109//118 106//118 104//118
f 104//119 107//119 109//119
f 110//120 106//120 109//120
f 105//121 103//121 106//121
f 106//122 110//122 105//122
f 111//123 100//123 105//123
f 21//124 18//124 107//124
f 108//125 107//125 18//125
f 108//126 18//126 2//126
f 109//127 108//127 1//127
f 2//128 1//128 108//128
f 8//129 7//129 109//129
f 1//129 8//129 109//129
f 111//130 105//130 110//130
f 111//131 110//131 13//131
f 15//131 13//131 110//131
f 110//132 109//132 4//132
f 7//132 4//132 109//132
f 6//133 15//133 110//133
f 4//133 6//133 110//133
f 112//134 98//134 100//134
f 100//135 111//135 112//135
f 112//136 111//136 14//136
f 13//137 14//137 111//137
f 14//138 48//138 112//138
f 113//139 99//139 98//139
f 98//140 112//140 113//140
f 114//141 97//141 99//141
f 99//142 113//142 114//142
f 115//143 79//143 97//143
f 97//144 114//144 115//144
f 78//145 79//145 115//145
f 115//146 116//146 78//146
f 80//147 78//147 116//147
f 116//148 117//148 80//148
f 117//149 82//149 80//149
f 113//150 112//150 47//150
f 48//151 47//151 112//151
f 43//152 118//152 113//152
f 47//153 43//153 113//153
f 119//154 114//154 113//154
f 113//155 118//155 119//155
f 43//156 45//156 118//156
f 117//157 11//157 10//157
f 117//157 10//157 41//157
f 117//157 41//157 82//157
f 117//158 32//158 11//158
f 120//159 50//159 30//159
f 120//160 30//160 117//160
f 32//161 117//161 30//161
f 120//162 49//162 50//162
f 46//163 54//163 118//163
f 44//163 46//163 118//163
f 119//164 118//164 54//164
f 45//165 44//165 118//165
f 120//166 117//166 116//166
f 116//167 121//167 120//167
f 115//168 114//168 119//168
f 119//169 121//169 115//169
f 121//170 119//170 53//170
f 54//171 53//171 119//171
f 53//172 52//172 121//172
f 116//173 115//173 121//173
f 51//174 49//174 120//174
f 51//175 120//175 121//175
f 52//176 51//176 121//176
