# Blender v2.80 (sub 75) OBJ File: ''
# www.blender.org
mtllib pedra_3.mtl
o Stone_7
v -0.150809 0.020328 -7.300438
v 1.417361 0.020328 -6.849304
v -0.187292 0.020328 -7.297089
v -3.324741 0.020329 -1.402836
v -3.626713 0.020329 -1.852585
v -0.187185 0.020506 -1.510212
v 1.823575 0.020330 3.092606
v -0.187292 0.020330 2.999752
v 2.282462 0.020330 3.045971
v 0.494961 0.020330 3.104565
v 3.618558 0.020329 -1.130753
v 3.667456 0.020329 -1.293266
v 3.309828 0.020330 0.784046
v 3.134912 0.020330 1.123066
v 3.093156 0.020330 1.221062
v -3.662375 0.020329 -3.844070
v -3.870290 0.020329 -2.623905
v -3.812766 0.020329 -3.489662
v -3.574731 0.020329 -4.330261
v -3.732516 0.020329 -2.298210
v 3.638753 0.020329 -1.771683
v 1.636229 0.020328 -6.783875
v 1.937849 0.020328 -6.479145
v 2.190588 0.020328 -6.244122
v 3.296186 0.020328 -5.055542
v 3.311780 0.020328 -5.028099
v 3.300238 0.020328 -5.053024
v 3.467423 0.020329 -4.552780
v -2.511389 0.020330 1.588627
v -2.572116 0.020330 0.475414
v -2.335487 0.020330 1.990829
v -2.226932 0.020330 2.210754
v -1.900765 0.020330 2.455647
v -1.505622 0.020330 2.597118
v -1.205308 0.020330 2.717430
v -0.440250 0.020330 2.960892
v 3.482548 0.020329 -4.324387
v 3.476580 0.020329 -4.524815
v 3.589268 0.020329 -3.279076
v -2.599041 0.020330 -0.018158
v 2.591511 0.020330 2.398354
v 2.310641 0.020330 2.961567
v -0.378466 0.020328 -7.288277
v -2.418644 0.020328 -6.335979
v -0.694661 0.020328 -7.284061
v -0.255172 0.020328 -7.290855
v -2.509580 0.020328 -6.271717
v -2.563303 0.020328 -6.241634
v -2.661281 0.020328 -6.158741
v -3.347321 0.020328 -5.294636
v -3.551270 0.020329 -4.460403
v -0.641694 0.020330 2.968182
v 3.029603 2.068893 0.878246
v 3.589175 1.644945 -0.992580
v 2.822631 2.545909 -0.475182
v 1.069159 2.517849 1.292988
v 2.016843 2.858077 -0.407272
v 2.287219 1.649025 2.409618
v 0.267639 1.408037 3.035500
v 2.196243 1.121333 2.884212
v 0.546235 1.881689 2.662052
v 1.608115 3.001317 -3.295986
v 2.508839 2.632261 -3.731457
v 3.409611 1.236625 -4.395168
v 3.534143 0.148765 -4.502361
v 3.020587 0.581081 -5.456051
v 1.613191 2.531009 -5.089790
v 0.465683 2.772013 -4.695816
v -0.241313 2.868097 -2.475574
v -1.225509 2.725249 -3.644772
v 0.476787 2.657861 -0.070045
v 0.274395 2.461321 0.617027
v 0.041543 2.452518 -0.284203
v -1.283805 1.885345 -1.797756
v -0.044453 2.244705 -0.133499
v -0.820465 1.438073 1.919449
v -1.261677 1.347561 -1.231682
v -1.387809 0.984477 1.075214
v -2.009904 0.634597 -0.150089
v -2.704789 1.426741 -2.853081
v -2.651285 0.981369 -2.437477
v -3.399380 0.506417 -2.538597
v -0.390089 0.993133 3.029404
v -0.571253 1.226413 2.765862
v -1.452317 0.974793 2.434727
v -2.271328 0.240149 2.082561
v -1.429717 0.524237 2.591259
v -3.717312 0.413293 -3.093647
v -3.329565 1.233425 -4.315460
v -2.231837 1.969613 -4.733471
v -0.634009 2.398085 -5.066799
v 1.354099 2.055865 -5.981441
v 1.950739 1.069029 -6.319721
v 0.676687 2.197901 -6.044422
v -0.723949 1.343385 -6.806149
v -1.751649 1.276005 -6.300816
v -2.533032 0.124637 -6.234245
v -0.351449 0.303417 -7.367359
v 1.528803 0.455725 -6.831783
vn 0.0000 -1.0000 0.0000
vn 0.0001 -1.0000 -0.0000
vn -0.0000 -1.0000 0.0001
vn -0.0001 -1.0000 0.0000
vn 0.9793 0.1267 0.1579
vn 0.9576 -0.0072 0.2880
vn 0.9576 -0.0073 0.2881
vn 0.7846 0.6125 0.0959
vn 0.2706 0.9202 0.2829
vn 0.3623 0.8542 0.3729
vn 0.9071 0.1668 0.3865
vn 0.8842 0.0998 0.4562
vn 0.8843 0.1000 0.4561
vn 0.1547 0.6458 0.7477
vn 0.1909 0.5361 0.8223
vn 0.2820 0.8816 0.3784
vn 0.1836 0.8628 0.4710
vn 0.3609 0.9326 -0.0048
vn 0.3744 0.9272 -0.0115
vn 0.7450 0.6649 -0.0542
vn 0.8098 0.5759 -0.1118
vn 0.9965 0.0590 -0.0597
vn 0.9965 0.0591 -0.0598
vn 0.9926 0.1168 -0.0325
vn 0.9926 0.1167 -0.0326
vn 0.8971 0.1439 -0.4178
vn 0.8972 0.1486 -0.4158
vn 0.8975 0.1474 -0.4156
vn 0.6291 0.6255 -0.4615
vn 0.6148 0.5499 -0.5653
vn 0.2178 0.9191 -0.3283
vn 0.1466 0.9746 -0.1693
vn -0.1053 0.9915 -0.0765
vn -0.0677 0.9956 -0.0646
vn -0.1146 0.9913 0.0654
vn -0.0292 0.9950 0.0957
vn -0.4687 0.8761 0.1125
vn -0.1606 0.9812 0.1068
vn -0.0694 0.9643 0.2554
vn -0.5036 0.8346 0.2233
vn -0.5878 0.7776 0.2233
vn -0.8391 0.5009 0.2119
vn -0.3170 0.9006 0.2974
vn -0.4375 0.8482 0.2986
vn -0.7415 0.5670 0.3587
vn -0.7439 0.4698 0.4754
vn -0.6462 0.7612 0.0548
vn -0.6625 0.7478 0.0434
vn -0.6310 0.7692 0.1007
vn -0.6325 0.7713 0.0709
vn -0.5183 0.7846 0.3404
vn -0.5094 0.7893 0.3428
vn -0.6240 0.5542 0.5509
vn -0.6150 0.4972 0.6120
vn -0.4752 0.8490 0.2309
vn -0.5315 0.7555 0.3830
vn -0.4576 0.5766 0.6768
vn 0.8831 0.1619 0.4404
vn 0.9419 0.1199 0.3139
vn 0.9417 0.1199 0.3144
vn 0.0999 0.1523 0.9833
vn 0.0998 0.1523 0.9833
vn 0.0090 0.0512 0.9986
vn -0.1518 0.0243 0.9881
vn 0.0361 -0.0721 0.9967
vn 0.0362 -0.0721 0.9967
vn -0.4474 0.7010 0.5554
vn -0.2889 0.6096 0.7382
vn -0.4053 0.7694 0.4937
vn -0.4234 0.8676 0.2609
vn -0.6424 0.6884 0.3367
vn -0.6425 0.6883 0.3368
vn -0.5381 0.7615 0.3613
vn -0.5932 0.8018 0.0722
vn -0.7174 0.6955 0.0391
vn -0.7170 0.6960 0.0390
vn -0.6032 0.7972 -0.0229
vn -0.6613 0.7497 -0.0260
vn -0.3711 0.0667 0.9262
vn -0.4060 0.0476 0.9126
vn -0.4061 0.0476 0.9126
vn -0.3364 0.0616 0.9397
vn -0.5099 0.4395 0.7395
vn -0.4070 0.2815 0.8690
vn -0.5609 0.2464 0.7903
vn -0.5674 0.3270 0.7557
vn -0.5672 0.3264 0.7561
vn -0.9116 0.0997 0.3987
vn -0.8941 0.0768 0.4413
vn 0.8752 -0.4754 -0.0894
vn 0.9140 -0.4049 -0.0272
vn 0.8909 -0.3483 -0.2917
vn -0.7668 0.6155 0.1821
vn -0.7109 0.6359 0.3005
vn -0.7108 0.6359 0.3007
vn -0.9533 0.2954 -0.0633
vn -0.7096 0.6378 0.2994
vn -0.7158 0.6634 0.2181
vn -0.6038 0.7820 0.1546
vn -0.5682 0.8217 -0.0451
vn -0.2592 0.8890 -0.3775
vn -0.2813 0.9514 -0.1252
vn 0.6584 0.5680 -0.4940
vn 0.6582 0.5675 -0.4947
vn 0.0217 0.8797 -0.4751
vn 0.2233 0.9090 -0.3520
vn -0.1674 0.8974 -0.4082
vn -0.2409 0.8354 -0.4941
vn -0.2810 0.8428 -0.4591
vn -0.3192 0.8176 -0.4792
vn -0.7833 0.5253 -0.3324
vn -0.9648 0.1973 -0.1739
vn -0.9648 0.1972 -0.1739
vn -0.9648 0.1971 -0.1739
vn -0.9514 0.2017 -0.2326
vn -0.6969 0.4565 -0.5531
vn -0.6967 0.4567 -0.5532
vn -0.5957 0.5631 -0.5727
vn -0.7527 0.4850 -0.4452
vn -0.6278 0.2348 -0.7421
vn -0.4787 0.1995 -0.8550
vn -0.5695 0.1615 -0.8059
vn -0.4581 0.3103 -0.8330
vn -0.4581 0.3101 -0.8330
vn -0.4405 0.2490 -0.8625
vn -0.4598 0.2885 -0.8398
vn 0.1492 0.5104 -0.8469
vn 0.2032 0.4841 -0.8511
vn 0.1692 0.4096 -0.8964
vn 0.2675 0.5024 -0.8222
vn 0.4984 -0.3281 -0.8024
vn 0.4981 -0.3284 -0.8025
vn 0.7271 0.1175 -0.6764
vn 0.7076 0.0976 -0.6999
vn 0.7073 0.0977 -0.7001
vn 0.6774 0.1024 -0.7285
vn 0.2763 -0.0321 -0.9605
vn 0.2762 -0.0314 -0.9606
vn 0.2863 -0.0347 -0.9575
vn -0.0876 -0.2875 -0.9538
vn -0.0128 -0.2679 -0.9634
vn -0.0202 -0.2672 -0.9634
usemtl Material.001
s off
f 1//1 2//1 3//1
f 4//2 5//2 6//2
f 7//1 8//1 9//1
f 10//1 8//1 7//1
f 11//1 6//1 12//1
f 13//1 6//1 11//1
f 14//1 6//1 13//1
f 15//1 6//1 14//1
f 16//1 17//1 18//1
f 19//1 17//1 16//1
f 19//1 20//1 17//1
f 19//1 5//1 20//1
f 19//2 6//2 5//2
f 21//1 12//1 6//1
f 22//3 3//3 2//3
f 23//1 3//1 22//1
f 24//1 3//1 23//1
f 25//1 3//1 24//1
f 26//1 25//1 27//1
f 26//1 3//1 25//1
f 28//1 3//1 26//1
f 6//1 3//1 28//1
f 6//2 29//2 30//2
f 6//1 31//1 29//1
f 6//1 32//1 31//1
f 6//1 33//1 32//1
f 6//1 34//1 33//1
f 6//1 35//1 34//1
f 6//1 36//1 35//1
f 6//1 8//1 36//1
f 37//1 28//1 38//1
f 21//1 37//1 39//1
f 21//4 28//4 37//4
f 6//1 28//1 21//1
f 6//2 40//2 4//2
f 6//2 30//2 40//2
f 41//1 6//1 15//1
f 42//1 6//1 41//1
f 8//1 6//1 42//1
f 43//1 44//1 45//1
f 46//1 44//1 43//1
f 3//1 44//1 46//1
f 3//1 47//1 44//1
f 3//1 48//1 47//1
f 3//1 49//1 48//1
f 3//1 50//1 49//1
f 3//1 51//1 50//1
f 3//1 19//1 51//1
f 3//1 6//1 19//1
f 52//1 35//1 36//1
f 42//1 9//1 8//1
f 13//5 11//5 53//5
f 12//6 54//6 53//6
f 11//7 12//7 53//7
f 53//8 54//8 55//8
f 56//9 53//9 55//9
f 55//10 57//10 56//10
f 15//11 14//11 58//11
f 41//11 15//11 58//11
f 14//12 13//12 58//12
f 53//13 58//13 13//13
f 59//14 60//14 58//14
f 58//15 61//15 59//15
f 58//16 53//16 56//16
f 56//17 61//17 58//17
f 62//18 57//18 55//18
f 55//19 63//19 62//19
f 63//20 55//20 54//20
f 54//21 64//21 63//21
f 21//22 64//22 54//22
f 12//23 21//23 54//23
f 39//24 65//24 64//24
f 21//25 39//25 64//25
f 66//26 64//26 65//26
f 66//27 65//27 27//27
f 26//28 27//28 65//28
f 67//29 63//29 64//29
f 64//30 66//30 67//30
f 68//31 62//31 63//31
f 63//32 67//32 68//32
f 69//33 62//33 68//33
f 68//34 70//34 69//34
f 71//35 57//35 62//35
f 62//36 69//36 71//36
f 72//37 71//37 73//37
f 72//38 56//38 57//38
f 57//39 71//39 72//39
f 73//40 71//40 69//40
f 69//41 74//41 73//41
f 72//42 73//42 75//42
f 61//43 56//43 72//43
f 72//44 76//44 61//44
f 77//45 75//45 73//45
f 73//46 74//46 77//46
f 76//47 72//47 75//47
f 75//48 78//48 76//48
f 79//49 78//49 75//49
f 75//50 77//50 79//50
f 74//51 69//51 70//51
f 70//52 80//52 74//52
f 81//53 77//53 74//53
f 74//54 80//54 81//54
f 82//55 79//55 77//55
f 77//56 81//56 82//56
f 82//57 81//57 80//57
f 42//58 41//58 58//58
f 58//59 60//59 42//59
f 9//60 42//60 60//60
f 7//61 9//61 60//61
f 60//62 59//62 7//62
f 7//63 59//63 10//63
f 8//64 10//64 59//64
f 59//64 36//64 8//64
f 83//65 52//65 36//65
f 36//66 59//66 83//66
f 83//67 59//67 61//67
f 61//68 84//68 83//68
f 85//69 84//69 61//69
f 61//70 76//70 85//70
f 40//71 79//71 4//71
f 82//72 4//72 79//72
f 82//73 5//73 4//73
f 86//74 78//74 79//74
f 30//75 86//75 40//75
f 29//75 86//75 30//75
f 79//76 40//76 86//76
f 85//77 76//77 78//77
f 78//78 86//78 85//78
f 34//79 35//79 87//79
f 83//80 35//80 52//80
f 83//81 87//81 35//81
f 87//82 33//82 34//82
f 87//83 83//83 84//83
f 84//84 85//84 87//84
f 87//85 85//85 86//85
f 87//86 32//86 33//86
f 87//87 86//87 32//87
f 31//88 86//88 29//88
f 32//89 86//89 31//89
f 39//90 37//90 65//90
f 37//91 38//91 65//91
f 28//92 26//92 65//92
f 38//92 28//92 65//92
f 5//93 82//93 20//93
f 17//94 82//94 88//94
f 20//95 82//95 17//95
f 17//96 88//96 18//96
f 88//97 82//97 80//97
f 80//98 89//98 88//98
f 89//99 80//99 70//99
f 70//100 90//100 89//100
f 90//101 70//101 68//101
f 68//102 91//102 90//102
f 92//103 67//103 66//103
f 66//104 93//104 92//104
f 68//105 67//105 92//105
f 92//106 94//106 68//106
f 91//107 68//107 94//107
f 95//108 91//108 94//108
f 95//109 96//109 90//109
f 90//110 91//110 95//110
f 18//111 88//111 16//111
f 19//112 88//112 51//112
f 16//113 88//113 19//113
f 89//114 51//114 88//114
f 51//115 89//115 50//115
f 49//116 89//116 97//116
f 50//117 89//117 49//117
f 97//118 89//118 90//118
f 90//119 96//119 97//119
f 97//120 48//120 49//120
f 48//121 97//121 47//121
f 44//122 47//122 97//122
f 98//123 45//123 44//123
f 98//124 44//124 97//124
f 97//125 96//125 95//125
f 95//126 98//126 97//126
f 98//127 95//127 94//127
f 94//128 99//128 98//128
f 94//129 92//129 93//129
f 93//130 99//130 94//130
f 27//131 25//131 66//131
f 93//132 66//132 25//132
f 25//133 24//133 93//133
f 22//134 99//134 93//134
f 23//135 22//135 93//135
f 23//136 93//136 24//136
f 99//137 2//137 1//137
f 99//138 1//138 98//138
f 2//139 99//139 22//139
f 3//140 46//140 98//140
f 1//140 3//140 98//140
f 98//141 43//141 45//141
f 43//142 98//142 46//142
